<svg width="30" height="24" viewBox="0 0 30 24" fill="none" xmlns="http://www.w3.org/2000/svg">
<path d="M14.2891 5.96719C14.6219 5.67187 14.7532 5.20781 14.5797 4.79531C14.4719 4.54687 14.3547 4.30312 14.2235 4.06875L14.0782 3.81562C13.9376 3.58125 13.7829 3.35156 13.6188 3.13125C13.3516 2.775 12.8829 2.65781 12.461 2.79844L11.1391 3.23437C10.6375 2.82187 10.061 2.48437 9.44224 2.25469L9.1563 0.895312C9.06724 0.459375 8.72974 0.1125 8.28911 0.0609375C7.97974 0.01875 7.66567 0 7.34692 0H7.31411C6.99536 0 6.6813 0.01875 6.37193 0.05625C5.9313 0.107812 5.5938 0.459375 5.50474 0.890625L5.2188 2.25469C4.59536 2.48906 4.02349 2.82187 3.52193 3.23437L2.19536 2.80312C1.77349 2.6625 1.30474 2.77969 1.03755 3.13594C0.873487 3.35625 0.7188 3.58594 0.573487 3.82031L0.432862 4.06875C0.301612 4.30312 0.184425 4.54687 0.0766125 4.8C-0.096825 5.20781 0.034425 5.67187 0.367238 5.97187L1.40786 6.9C1.3563 7.21406 1.32818 7.54219 1.32818 7.875C1.32818 8.20781 1.3563 8.53594 1.40786 8.85469L0.367238 9.78281C0.034425 10.0781 -0.096825 10.5422 0.0766125 10.9547C0.184425 11.2031 0.301612 11.4469 0.432862 11.6859L0.573487 11.9297C0.714112 12.1687 0.8688 12.3937 1.03755 12.6141C1.30474 12.9703 1.77349 13.0875 2.19536 12.9469L3.51724 12.5109C4.0188 12.9234 4.59536 13.2609 5.21411 13.4906L5.50005 14.8547C5.58911 15.2906 5.92661 15.6375 6.36724 15.6891C6.6813 15.7266 7.00005 15.7453 7.32349 15.7453C7.64692 15.7453 7.96567 15.7266 8.27974 15.6891C8.72036 15.6375 9.05786 15.2859 9.14692 14.8547L9.43286 13.4906C10.0563 13.2562 10.6282 12.9234 11.1297 12.5109L12.4516 12.9469C12.8735 13.0875 13.3422 12.9703 13.6094 12.6141C13.7735 12.3937 13.9282 12.1687 14.0688 11.9297L14.2141 11.6766C14.3454 11.4422 14.4626 11.1984 14.5704 10.95C14.7438 10.5422 14.6125 10.0781 14.2797 9.77812L13.2391 8.85C13.2907 8.53125 13.3188 8.20312 13.3188 7.87031C13.3188 7.5375 13.2907 7.20937 13.2391 6.89062L14.2797 5.9625L14.2891 5.96719ZM5.07818 7.875C5.07818 7.27826 5.31523 6.70597 5.73719 6.28401C6.15914 5.86205 6.73144 5.625 7.32817 5.625C7.92491 5.625 8.49721 5.86205 8.91917 6.28401C9.34112 6.70597 9.57817 7.27826 9.57817 7.875C9.57817 8.47174 9.34112 9.04403 8.91917 9.46599C8.49721 9.88795 7.92491 10.125 7.32817 10.125C6.73144 10.125 6.15914 9.88795 5.73719 9.46599C5.31523 9.04403 5.07818 8.47174 5.07818 7.875ZM23.486 23.0859C23.7813 23.4187 24.2454 23.55 24.6579 23.3766C24.9063 23.2687 25.1501 23.1516 25.3844 23.0203L25.6375 22.875C25.8719 22.7344 26.1016 22.5797 26.3219 22.4156C26.6782 22.1484 26.7954 21.6797 26.6547 21.2578L26.2188 19.9359C26.6313 19.4344 26.9688 18.8578 27.1985 18.2391L28.5626 17.9531C28.9985 17.8641 29.3454 17.5266 29.3969 17.0859C29.4344 16.7719 29.4532 16.4531 29.4532 16.1297C29.4532 15.8062 29.4344 15.4875 29.3969 15.1734C29.3454 14.7328 28.9938 14.3953 28.5626 14.3062L27.1985 14.0156C26.9641 13.3922 26.6313 12.8203 26.2188 12.3187L26.6547 10.9969C26.7954 10.575 26.6782 10.1062 26.3219 9.83906C26.1016 9.675 25.8719 9.52031 25.6375 9.375L25.3891 9.23437C25.1547 9.10312 24.911 8.98594 24.6579 8.87812C24.2501 8.70469 23.786 8.83594 23.486 9.16875L22.5579 10.2094C22.2391 10.1578 21.911 10.1297 21.5782 10.1297C21.2454 10.1297 20.9172 10.1578 20.5985 10.2094L19.6704 9.16875C19.375 8.83594 18.911 8.70469 18.4985 8.87812C18.25 8.98594 18.0063 9.10312 17.7672 9.23437L17.5235 9.375C17.2844 9.51562 17.0594 9.67031 16.8391 9.83906C16.4829 10.1062 16.3657 10.575 16.5063 10.9969L16.9422 12.3187C16.5297 12.8203 16.1922 13.3969 15.9626 14.0156L14.5985 14.2969C14.1626 14.3859 13.8157 14.7234 13.7641 15.1641C13.7266 15.4781 13.7079 15.7969 13.7079 16.1203C13.7079 16.4437 13.7266 16.7625 13.7641 17.0766C13.8157 17.5172 14.1672 17.8547 14.5985 17.9437L15.9626 18.2297C16.1969 18.8531 16.5297 19.425 16.9422 19.9266L16.5063 21.2484C16.3657 21.6703 16.4829 22.1391 16.8391 22.4062C17.0594 22.5703 17.2844 22.725 17.5235 22.8656L17.7766 23.0109C18.011 23.1422 18.2547 23.2594 18.5032 23.3672C18.911 23.5406 19.3751 23.4094 19.6751 23.0766L20.6032 22.0359C20.9219 22.0875 21.2501 22.1156 21.5829 22.1156C21.9157 22.1156 22.2438 22.0875 22.5626 22.0359L23.4907 23.0766L23.486 23.0859ZM21.5782 13.875C21.8736 13.875 22.1662 13.9332 22.4392 14.0463C22.7122 14.1593 22.9602 14.3251 23.1692 14.534C23.3781 14.7429 23.5438 14.991 23.6569 15.264C23.77 15.5369 23.8282 15.8295 23.8282 16.125C23.8282 16.4205 23.77 16.7131 23.6569 16.986C23.5438 17.259 23.3781 17.5071 23.1692 17.716C22.9602 17.9249 22.7122 18.0907 22.4392 18.2037C22.1662 18.3168 21.8736 18.375 21.5782 18.375C21.2827 18.375 20.9901 18.3168 20.7171 18.2037C20.4442 18.0907 20.1961 17.9249 19.9872 17.716C19.7783 17.5071 19.6125 17.259 19.4994 16.986C19.3864 16.7131 19.3282 16.4205 19.3282 16.125C19.3282 15.8295 19.3864 15.5369 19.4994 15.264C19.6125 14.991 19.7783 14.7429 19.9872 14.534C20.1961 14.3251 20.4442 14.1593 20.7171 14.0463C20.9901 13.9332 21.2827 13.875 21.5782 13.875Z" fill="white"/>
</svg>
