<svg width="24" height="21" viewBox="0 0 24 21" fill="none" xmlns="http://www.w3.org/2000/svg">
<path d="M19.6031 6.80566C19.35 6.72129 19.0969 6.6416 18.8438 6.5666C18.8859 6.39316 18.9234 6.21973 18.9609 6.04629C19.5375 3.25254 19.1578 1.00723 17.8781 0.266601C16.6453 -0.441211 14.6344 0.294726 12.6 2.0666C12.3984 2.24004 12.2016 2.42285 12.0141 2.60566C11.8875 2.48379 11.7562 2.36191 11.625 2.24473C9.49219 0.350976 7.35469 -0.445899 6.075 0.299414C4.84688 1.01191 4.48125 3.12598 4.99687 5.76973C5.04844 6.03223 5.10469 6.29004 5.17031 6.55254C4.87031 6.63691 4.575 6.73066 4.29844 6.8291C1.79531 7.69629 0 9.06504 0 10.4807C0 11.9432 1.9125 13.4104 4.51406 14.301C4.725 14.3713 4.93594 14.4416 5.15156 14.5025C5.08125 14.7838 5.02031 15.0604 4.96406 15.3463C4.47188 17.9479 4.85625 20.0103 6.08438 20.7182C7.35 21.4494 9.47812 20.6994 11.55 18.8854C11.7141 18.74 11.8781 18.59 12.0422 18.4307C12.2484 18.6322 12.4641 18.8244 12.6797 19.0119C14.6859 20.7369 16.6688 21.4354 17.8922 20.7275C19.1578 19.9963 19.5703 17.7791 19.0359 15.0791C18.9938 14.8729 18.9469 14.6619 18.8953 14.4463C19.0453 14.4041 19.1906 14.3572 19.3359 14.3104C22.0406 13.415 24 11.9666 24 10.4807C24 9.06035 22.1531 7.68223 19.6031 6.80566ZM13.2609 2.82598C15.0047 1.30723 16.6313 0.711914 17.3719 1.13848C18.1641 1.59316 18.4687 3.43066 17.9719 5.84473C17.9391 6.0041 17.9063 6.15879 17.8641 6.31348C16.8234 6.0791 15.7687 5.91035 14.7094 5.8166C14.1 4.94473 13.4344 4.11035 12.7125 3.32754C12.8953 3.1541 13.0734 2.99004 13.2609 2.82598ZM7.8375 12.9135C8.07656 13.3213 8.32031 13.7291 8.57812 14.1275C7.84687 14.0479 7.12031 13.9307 6.40313 13.776C6.60938 13.101 6.86719 12.4025 7.16719 11.69C7.38281 12.1025 7.60312 12.5104 7.8375 12.9135ZM6.41719 7.27441C7.09219 7.12441 7.80938 7.00254 8.55469 6.90879C8.30625 7.29785 8.0625 7.69629 7.83281 8.09941C7.60313 8.49785 7.37812 8.90566 7.16719 9.31816C6.87187 8.61973 6.62344 7.93535 6.41719 7.27441ZM7.70156 10.5041C8.01094 9.85723 8.34844 9.22441 8.70469 8.60098C9.06094 7.97754 9.44531 7.37285 9.84844 6.77754C10.5516 6.72598 11.2687 6.69785 12 6.69785C12.7313 6.69785 13.4531 6.72598 14.1516 6.77754C14.55 7.36816 14.9297 7.97285 15.2906 8.5916C15.6516 9.21035 15.9891 9.84316 16.3078 10.4854C15.9937 11.1322 15.6562 11.7697 15.2953 12.3979C14.9391 13.0213 14.5594 13.626 14.1609 14.226C13.4625 14.2775 12.7359 14.301 12 14.301C11.2641 14.301 10.5516 14.2775 9.8625 14.2354C9.45469 13.64 9.07031 13.0307 8.70938 12.4072C8.34844 11.7838 8.01563 11.151 7.70156 10.5041ZM16.1672 12.9041C16.4062 12.4916 16.6313 12.0744 16.8516 11.6525C17.1516 12.3322 17.4141 13.0213 17.6437 13.7291C16.9172 13.8932 16.1812 14.0197 15.4406 14.1041C15.6937 13.7104 15.9328 13.3072 16.1672 12.9041ZM16.8422 9.31816C16.6219 8.90566 16.3969 8.49316 16.1625 8.09004C15.9328 7.6916 15.6938 7.29785 15.4453 6.90879C16.2 7.00254 16.9219 7.1291 17.5969 7.28379C17.3812 7.97754 17.1281 8.65254 16.8422 9.31816ZM12.0094 4.04473C12.5016 4.5791 12.9656 5.1416 13.3969 5.72285C12.4687 5.68066 11.5359 5.68066 10.6078 5.72285C11.0672 5.11816 11.5406 4.55566 12.0094 4.04473ZM6.57187 1.17129C7.35937 0.711914 9.10781 1.36816 10.95 2.99941C11.0672 3.10254 11.1844 3.21504 11.3062 3.32754C10.5797 4.11035 9.90938 4.94473 9.29531 5.8166C8.23594 5.91035 7.18594 6.07441 6.14531 6.3041C6.08438 6.06504 6.03281 5.82129 5.98125 5.57754C5.54062 3.30879 5.83125 1.59785 6.57187 1.17129ZM5.42344 13.5275C5.22656 13.4713 5.03438 13.4104 4.84219 13.3447C3.84375 13.0307 2.70937 12.5338 1.88906 11.8822C1.41562 11.5541 1.09687 11.0479 1.00781 10.4807C1.00781 9.62285 2.48906 8.52598 4.62656 7.78066C4.89375 7.68691 5.16562 7.60254 5.4375 7.52285C5.75625 8.54004 6.14062 9.53848 6.58594 10.5041C6.13594 11.4838 5.74687 12.4963 5.42344 13.5275ZM10.8891 18.1213C10.1156 18.8291 9.22031 19.3916 8.24531 19.776C7.725 20.0244 7.125 20.0479 6.59063 19.8369C5.84531 19.4057 5.53594 17.751 5.95781 15.5244C6.00937 15.2619 6.06563 14.9994 6.13125 14.7416C7.18125 14.9666 8.24062 15.1213 9.31406 15.201C9.93281 16.0775 10.6125 16.9166 11.3391 17.7041C11.1891 17.8494 11.0391 17.99 10.8891 18.1213ZM12.0375 16.9822C11.5594 16.4666 11.0812 15.8947 10.6172 15.2807C11.0672 15.2994 11.5312 15.3088 12 15.3088C12.4828 15.3088 12.9562 15.2994 13.425 15.276C12.9937 15.8713 12.5297 16.4385 12.0375 16.9822ZM18.1641 18.3885C18.1219 18.9604 17.8406 19.4947 17.3906 19.8557C16.6453 20.2869 15.0563 19.7244 13.3406 18.2525C13.1438 18.0838 12.9469 17.901 12.7453 17.7135C13.4625 16.9213 14.1234 16.0822 14.7234 15.201C15.7969 15.1119 16.8656 14.9479 17.9203 14.7088C17.9672 14.901 18.0094 15.0932 18.0469 15.2807C18.2766 16.2932 18.3141 17.3479 18.1641 18.3885ZM19.0172 13.3494C18.8859 13.3916 18.7547 13.4338 18.6188 13.4713C18.2906 12.4494 17.8875 11.451 17.4234 10.4807C17.8734 9.52441 18.2531 8.54004 18.5719 7.53223C18.8156 7.60254 19.05 7.67754 19.275 7.75254C21.4594 8.50254 22.9922 9.61816 22.9922 10.4713C22.9922 11.39 21.3563 12.576 19.0172 13.3494ZM12 12.6463C13.1859 12.6463 14.1469 11.6854 14.1469 10.4994C14.1469 9.31348 13.1859 8.35254 12 8.35254C10.8141 8.35254 9.85312 9.31348 9.85312 10.4994C9.85312 11.6854 10.8141 12.6463 12 12.6463Z" fill="white"/>
</svg>
